<svg xmlns="http://www.w3.org/2000/svg" viewBox="0 0 260 56" fill="none">
  <title>ferridriver</title>

  <g transform="translate(4, 4)">
    <path d="M 14 26 Q 6 22 2 28 Q 0 33 7 35 Q 11 35 14 32 L 14 30 Q 9 30 8 28 Q 9 26 14 26 Z"
          fill="#dea584" stroke="#1f1f1f" stroke-width="1.4" stroke-linejoin="round"/>
    <path d="M 34 26 Q 42 22 46 28 Q 48 33 41 35 Q 37 35 34 32 L 34 30 Q 39 30 40 28 Q 39 26 34 26 Z"
          fill="#dea584" stroke="#1f1f1f" stroke-width="1.4" stroke-linejoin="round"/>
    <ellipse cx="24" cy="30" rx="13" ry="8" fill="#dea584" stroke="#1f1f1f" stroke-width="1.5"/>
    <path d="M 19 22 L 17 14" stroke="#1f1f1f" stroke-width="1.5" stroke-linecap="round"/>
    <path d="M 29 22 L 31 14" stroke="#1f1f1f" stroke-width="1.5" stroke-linecap="round"/>
    <circle cx="17" cy="12.5" r="3" fill="#ffffff" stroke="#1f1f1f" stroke-width="1.3"/>
    <circle cx="31" cy="12.5" r="3" fill="#ffffff" stroke="#1f1f1f" stroke-width="1.3"/>
    <circle cx="17.7" cy="13" r="1.2" fill="#1f1f1f"/>
    <circle cx="31.7" cy="13" r="1.2" fill="#1f1f1f"/>
    <path d="M 20 31 Q 24 35 28 31" stroke="#1f1f1f" stroke-width="1.5" fill="none" stroke-linecap="round"/>
    <line x1="15" y1="37.5" x2="13" y2="43"  stroke="#1f1f1f" stroke-width="1.5" stroke-linecap="round"/>
    <line x1="19" y1="38"   x2="18" y2="44"  stroke="#1f1f1f" stroke-width="1.5" stroke-linecap="round"/>
    <line x1="23" y1="38"   x2="23" y2="44.5" stroke="#1f1f1f" stroke-width="1.5" stroke-linecap="round"/>
    <line x1="27" y1="38"   x2="28" y2="44.5" stroke="#1f1f1f" stroke-width="1.5" stroke-linecap="round"/>
    <line x1="31" y1="38"   x2="32" y2="44"  stroke="#1f1f1f" stroke-width="1.5" stroke-linecap="round"/>
    <line x1="35" y1="37.5" x2="37" y2="43"  stroke="#1f1f1f" stroke-width="1.5" stroke-linecap="round"/>
  </g>

  <text x="68" y="38" font-family="ui-monospace, SFMono-Regular, Menlo, Consolas, monospace"
        font-size="26" font-weight="700" fill="#f5f5f7" letter-spacing="-0.5">ferridriver</text>
</svg>
